<?xml version="1.0" encoding="utf-8"?>
<!-- Generator: Adobe Illustrator 23.0.1, SVG Export Plug-In . SVG Version: 6.00 Build 0)  -->
<svg version="1.1" id="Layer_1" xmlns="http://www.w3.org/2000/svg" xmlns:xlink="http://www.w3.org/1999/xlink" x="0px" y="0px"
	 viewBox="0 0 134 50" style="enable-background:new 0 0 134 50;" xml:space="preserve">
<style type="text/css">
	.st0{fill:#FFFFFF;}
	.st1{fill:#A3244C;}
	.st2{fill:#C92659;}
	.st3{fill:#F02867;}
	.st4{fill:none;stroke:#494949;stroke-width:2;stroke-linecap:round;stroke-linejoin:round;}
</style>
<path transform="translate(74.948 6)" class="st0" d="M18.3,13.8c1.1,0,1.9-0.5,2.5-1.2c0.6,0.7,1.6,1.2,2.5,1.2
	c1.9,0,3.4-1.6,3.4-3.4S25.3,7,23.4,7c-1.1,0-1.9,0.5-2.5,1.2C20.3,7.5,19.4,7,18.4,7C16.5,7,15,8.5,15,10.4S16.4,13.8,18.3,13.8
	 M37.7,13.8c1.9,0,3.4-1.6,3.4-3.4S39.6,7,37.7,7c-1.9,0-3.4,1.6-3.4,3.4S35.8,13.8,37.7,13.8 M5.3,13.8c1.9,0,3.4-1.6,3.4-3.4
	S7.2,7,5.3,7s-3.4,1.6-3.4,3.4S3.4,13.8,5.3,13.8 M31.9,17.2h-5.5c-0.3,0-0.7,0.3-0.7,0.7v1.6H15.5V18c0-0.3-0.3-0.7-0.7-0.7H9.3
	c-0.3,0-0.7,0.3-0.7,0.7v5c0,0.6-0.5,1.2-1.2,1.2H3c-0.6,0-1.2-0.5-1.2-1.2v-5c0-0.3-0.3-0.7-0.7-0.7h-5.3C-4.6,17.2-5,17.5-5,18v5
	c0,4.4,3.6,8,8,8h4.5c3.2,0,6-1.9,7.2-4.5H28c0.6,0,1.2-0.5,1.2-1.2c0,0.6,0.5,1.2,1.2,1.2h11.8c0.3,0,0.7-0.3,0.7-0.7V20
	c0-0.3-0.3-0.7-0.7-0.7h-9.5v-1.6C32.6,17.5,32.2,17.2,31.9,17.2 M45.1,7.7v5.5c0,0.3,0.3,0.7,0.7,0.7h12.2c0.3,0,0.7-0.3,0.7-0.7
	V7.7c0-0.3-0.3-0.7-0.7-0.7H45.8C45.5,7,45.1,7.3,45.1,7.7 M48.5,25.6v-8.8c0-0.3,0.3-0.7,0.7-0.7h5.5c0.3,0,0.7,0.3,0.7,0.7v8.8
	c0,0.3-0.3,0.7-0.7,0.7h-5.5C48.8,26.3,48.5,25.9,48.5,25.6"/>
<path class="st0" d="M19.4,32c-0.1,0-0.2,0.1-0.4,0.2c-0.1,0.1-0.2,0.2-0.4,0.3c-0.1,0.1-0.3,0.3-0.4,0.4c-0.1,0.2-0.2,0.3-0.4,0.5
	c-0.1,0.1-0.1,0.2-0.2,0.2c-0.1,0.1-0.1,0.1-0.2,0.2c0,0.1-0.1,0.2-0.1,0.3s0,0.3-0.1,0.5c0,0.2,0,0.3,0,0.5s0,0.3,0,0.5
	c0,0.1,0,0.2,0,0.2c0,0.1,0,0.1,0,0.2c0,0.1,0,0.2,0,0.3s0,0.2,0,0.3s0,0.1,0,0.2c0,0.1-0.1,0.1-0.1,0.1s-0.1,0-0.1,0.1h-0.1
	c-0.1,0-0.2,0-0.3,0c-0.1,0-0.2-0.2-0.2-0.3c0,0,0-0.1,0-0.2c0-0.1,0-0.1,0-0.2c0-0.3,0-0.7,0-0.9c0-0.3,0-0.5,0.1-0.7
	c0-0.2,0-0.5,0.1-0.7c0-0.2,0.1-0.4,0.1-0.7c0-0.2,0.1-0.5,0.1-0.7c0-0.2,0.1-0.5,0.1-0.7c0-0.1,0-0.1,0.1-0.2
	c0.1-0.1,0.2-0.1,0.3-0.1s0.2,0,0.3,0s0.2,0.1,0.2,0.2c0,0,0,0,0,0.1v0.1l-0.1,0.5c0.1-0.1,0.2-0.3,0.4-0.4c0.1-0.2,0.3-0.3,0.4-0.4
	c0.1-0.1,0.3-0.2,0.5-0.3c0.2-0.1,0.3-0.2,0.5-0.2c0.3-0.1,0.5,0,0.7,0.1c0.2,0.1,0.4,0.4,0.5,0.7c0,0.2,0.1,0.5,0,0.7
	c0,0.3,0,0.5-0.1,0.9c0,0.3-0.1,0.7-0.1,1.1c-0.1,0.4-0.1,1.4-0.1,1.7c0,0.1,0,0.2,0,0.3c0,0.1,0,0.1-0.1,0.2
	c-0.1,0.3-0.1,0.3-0.1,0.3c-0.1,0-0.1,0.1-0.2,0.1s-0.2,0-0.3,0s-0.1-0.1-0.1-0.2c0-0.1,0-0.2,0-0.4c0-0.1,0-0.3,0-0.5
	s0-0.9,0.1-1.1c0-0.2,0.1-0.4,0.1-0.5c0-0.2,0.1-0.3,0.1-0.5c0-0.2,0-0.3,0.1-0.5c0-0.2,0-0.3,0-0.5c0-0.1,0-0.3,0-0.4
	c0-0.1-0.1-0.2-0.1-0.3C19.6,32,19.6,32,19.4,32z M36.1,31.2c0.2,0.1,0.4,0.4,0.5,0.7c0,0.2,0.1,0.5,0,0.7c0,0.3,0,0.5-0.1,0.9
	c0,0.3-0.1,0.7-0.1,1.1c-0.1,0.4-0.1,1.4-0.1,1.7c0,0.1,0,0.2,0,0.3s0,0.1-0.1,0.2l-0.1,0.1c-0.1,0-0.1,0.1-0.2,0.1
	c-0.1,0-0.2,0-0.3,0s-0.1-0.1-0.1-0.2s0-0.2,0-0.4c0-0.1,0-0.3,0-0.5s0-0.9,0.1-1.1c0.1-0.2,0.1-0.4,0.1-0.5c0-0.1,0.1-0.3,0.1-0.5
	c0-0.2,0-0.3,0.1-0.5c0-0.2,0-0.3,0-0.5c0-0.1,0-0.3,0-0.4s-0.1-0.2-0.1-0.3S35.8,32,35.7,32c-0.1,0-0.2,0.1-0.4,0.2
	c-0.1,0.1-0.2,0.2-0.4,0.3c-0.1,0.1-0.3,0.3-0.4,0.4c-0.1,0.2-0.2,0.3-0.4,0.5c-0.1,0.1-0.1,0.2-0.2,0.2c-0.1,0.1-0.1,0.1-0.2,0.2
	c0,0.1-0.1,0.2-0.1,0.3s0,0.3-0.1,0.5c-0.1,0.2,0,0.3,0,0.5c0,0.2,0,0.3,0,0.5c0,0.1,0,0.2,0,0.2c0,0.1,0,0.1,0,0.2
	c0,0.1,0,0.2,0,0.3v0.3c0,0.1,0,0.1,0,0.2l-0.1,0.1c0,0-0.1,0-0.1,0.1h-0.1c-0.1,0-0.2,0-0.3,0s-0.2-0.2-0.2-0.3c0,0,0-0.1,0-0.2
	c0-0.1,0-0.1,0-0.2c0-0.3,0-0.7,0-0.9c0-0.3,0-0.5,0.1-0.7c0-0.2,0-0.5,0.1-0.7c0.1-0.2,0.1-0.4,0.1-0.7c0-0.2,0.1-0.5,0.1-0.7
	c0-0.2,0.1-0.5,0.1-0.7c0-0.1,0-0.1,0.1-0.2c0.1-0.1,0.2-0.1,0.3-0.1c0.1,0,0.2,0,0.3,0s0.2,0.1,0.2,0.2v0.1v0.1l-0.1,0.5
	c0.1-0.1,0.2-0.3,0.4-0.4c0.1-0.2,0.3-0.3,0.4-0.4c0.1-0.1,0.3-0.2,0.5-0.3s0.3-0.2,0.5-0.2C35.6,31.1,35.9,31.1,36.1,31.2z
	 M9.9,13.9c0.5,0.9,0.9,2.2,1.1,2.5l0,0l0,0c0.2,0.5,0.4,1.1,0.7,1.6c1.1,3.2,2.1,6.5,2.7,9.9c0,0.3,0.2,0.3,0.4,0.1
	c1.7-1.1,3.7-1.6,5.5-2l0,0c1.4-0.2,2.1,0.5,1.9,1.8c-0.1,0.7-0.3,1.4-0.2,2.2c0,0.1,0,0.2,0,0.3c0.2,0.5,0.4,0.7,1.1,0.7
	c0.3-0.1,0.5-0.1,0.7-0.2c0.5-1.1,0.9-2.2,1.1-2.6c0.3-0.9,0.5-1.9,0.5-1.9c0-0.1,0.1-0.1,0.1-0.2c0-0.1,0.1-0.1,0.2-0.1
	c0.1,0,0.2,0,0.2,0.1c0.1,0,0.1,0.1,0.2,0.1c0.1,0,0.1,0.1,0.1,0.2c0,0.1,0,0.1,0,0.2c0,0.1,0,0.2,0,0.2s0,0.5-0.3,1.2
	c-0.1,0.3-0.5,1.4-1.1,2.4c0.5-0.2,1.1-0.5,1.6-0.7c2.7-1.1,5.3-2.5,7.9-3.7c1.8-0.7,3.7-1.6,5.7-1.9c0.7-0.1,1.4-0.2,2.2-0.3
	c0.1,0,0.3,0,0.4,0c0.4,0,0.7,0.2,0.5,0.5c0,0.3-0.2,0.5-0.7,0.5c-0.3,0-0.7,0-0.9,0.1c-2.3,0.2-4.4,0.9-6.5,1.8
	c-2.8,1.2-5.6,2.6-8.5,3.9c-0.7,0.4-1.6,0.7-2.4,0.9c-0.5,1.1-0.9,1.9-0.9,1.9c-0.1,0.2-0.1,0.4-0.2,0.5c0,0.2-0.1,0.3-0.1,0.5
	c0,0.2,0,0.3-0.1,0.4c0,0.1,0,0.2,0,0.3s0,0.2,0,0.2c0,0.1,0,0.2,0.1,0.2c0,0.1,0.1,0.1,0.2,0.1s0.1,0,0.2,0c0.2,0,0.3-0.1,0.5-0.1
	c0.2-0.1,0.3-0.2,0.5-0.4c0.2-0.1,0.3-0.3,0.4-0.5c0.1-0.2,0.3-0.3,0.4-0.5c0-0.1,0.1-0.1,0.2-0.1c0,0,0,0,0.1,0c0,0,0,0,0.1,0.1
	v0.1c0,0,0,0,0,0.1c0,0.2-0.1,0.4-0.2,0.5c-0.1,0.2-0.2,0.4-0.3,0.5c0,0.1-0.1,0.1-0.2,0.2c-0.1,0.1-0.1,0.1-0.2,0.2
	c-0.1,0.1-0.2,0.1-0.2,0.2c-0.1,0.1-0.2,0.1-0.2,0.2c-0.1,0.1-0.3,0.1-0.4,0.2c-0.1,0-0.3,0-0.4,0c-0.2,0-0.4,0-0.5-0.1
	c-0.2-0.1-0.3-0.2-0.4-0.3c-0.1-0.1-0.2-0.3-0.3-0.5c-0.1-0.2-0.1-0.4-0.1-0.5c0-0.3,0-0.5,0.1-0.9c0-0.1,0.5-1.2,1.1-2.6
	c-1.6,0.3-2.2-0.5-2.4-1.9c0-0.2,0-0.3,0-0.4c0-0.7,0.2-1.4,0.2-2c0-0.1,0-0.1,0-0.2c0-0.5-0.1-0.7-0.5-0.5c-2.1,0.4-4.1,1.1-6,2.2
	c-0.2,0.1-0.2,0.3-0.2,0.5c0.1,1.2,0.2,3,0,4.2c-0.1,0.7-0.2,1.2-0.5,1.8c-0.1,0.2-0.4,0.5-0.4,0.5s-1.1,0.7-1.9,0.5
	C11.4,36.2,11,36,11,36s-0.9-0.9-0.9-1.7c0-1.1,0.4-2.7,1.1-3.5c0.5-0.9,1.1-1.6,2-2.1c0.3-0.2,0.3-0.4,0.3-0.7
	c-0.5-3-1.2-6-2.2-8.9c-0.5-1.6-0.9-2.5-1.6-4.1c-0.1-0.2-0.4-0.7-0.7-0.7c-0.5,0.5-0.7,0.9-0.9,1.1c-0.3,0.4-2,3.2-2.8,5.1
	c-0.9,2.2-1.6,4.7-2.4,7c2.4-1.4,5-2.2,7.6-2.7c0.5-0.1,0.9-0.2,0.9,0.2s-0.3,0.7-0.7,0.7c-1.2,0.2-2.5,0.5-3.7,0.9
	c-1.4,0.5-2.7,1.1-3.9,1.8c-0.1,0.1-0.3,0.2-0.5,0.3c-0.1,0-0.1,0-0.2,0.1H2.5l-0.1,0.6c-0.4,1.4-0.9,4.2-1.1,5.7
	C1.3,36.2,1.3,37,0.7,37c-1.1,0,0.2-5.3,0.4-6.5c0-0.2,0.4-1.4,0.4-1.7c0.9-3.4,1.9-6.5,3.4-9.7c0.5-1.4,1.4-2.7,2.1-3.9
	c0.3-0.4,0.7-1.1,1.2-1.6C8.7,12.8,9.3,12.9,9.9,13.9z M13.5,30.2c-1.1,0.9-2.1,2.6-2.4,4c0,0.3-0.1,0.5,0,0.7
	c0,0.2,0.1,0.4,0.2,0.5c0.1,0.2,0.3,0.3,0.5,0.4c0.5,0.1,0.9,0,1.1-0.5c0.1-0.1,0.2-0.3,0.2-0.4s0.1-0.2,0.1-0.3
	C13.7,33.4,13.6,31.6,13.5,30.2z M11,16.4L11,16.4L11,16.4z M24.8,35.2c0,0,0.2-0.2,0.5-0.5c0.4-0.4,0.9-0.9,1.6-0.9
	c0.5,0,1.1,0.7,1.1,0.7c0-0.1,0.1-0.2,0.2-0.3c0.1-0.1,0.2-0.2,0.3-0.4c0.1-0.1,0.2-0.3,0.4-0.4c0.1-0.1,0.3-0.3,0.5-0.4
	s0.3-0.2,0.5-0.3s0.4-0.1,0.5-0.1c0.2,0,0.3,0,0.5,0.1c0.1,0,0.3,0.1,0.3,0.2c0.1,0.1,0.2,0.2,0.2,0.3c0,0.1,0.1,0.2,0.1,0.4
	c0,0.1,0,0.2,0,0.3c0,0.2-0.1,0.3-0.2,0.5c-0.1,0.1-0.3,0.2-0.4,0.4c-0.2,0.1-0.3,0.2-0.5,0.2c-0.2,0.1-0.4,0.1-0.5,0.2
	c-0.2,0-0.4,0.1-0.5,0.1c-0.1,0-0.3,0-0.5,0.1c0,0.1-0.1,0.1-0.1,0.2c0,0.1,0,0.2,0,0.3c0,0.2,0.1,0.3,0.2,0.4s0.3,0.2,0.5,0.2
	c0.2,0,0.3,0,0.4,0c0.1,0,0.3-0.1,0.4-0.1c0.1,0,0.2-0.1,0.3-0.2c0.1-0.1,0.2-0.1,0.3-0.2c0.1-0.1,0.2-0.1,0.3-0.2
	c0.1,0,0.2-0.1,0.3-0.1c0.1,0,0.1,0,0.2,0.1v0.1c0,0,0,0,0,0.1c0,0,0,0,0,0.1s0,0.2-0.1,0.2s-0.1,0.2-0.2,0.2
	c-0.3,0.3-0.7,0.5-0.9,0.5c-0.4-0.2-0.7-0.1-1.1-0.1c-0.1,0-0.2,0-0.3,0c-0.1,0-0.2,0-0.3-0.1c-0.1,0-0.2-0.1-0.3-0.1
	c-0.1-0.1-0.2-0.1-0.3-0.2c-0.1-0.1-0.2-0.2-0.2-0.3c0-0.1-0.1-0.3-0.1-0.5c0-0.2,0-0.3,0.1-0.5c0,0-0.5-0.7-0.9-0.7
	c-0.7,0-1.9,1.7-1.9,1.7C24.9,36.2,24.8,35.2,24.8,35.2z M30.5,33.8C30.5,33.8,30.5,33.7,30.5,33.8C30.5,33.7,30.5,33.7,30.5,33.8
	c0-0.2,0-0.2-0.1-0.3s-0.1-0.1-0.2-0.1c-0.1,0-0.3,0-0.4,0.1s-0.3,0.2-0.4,0.3c-0.1,0.1-0.2,0.2-0.3,0.4c-0.1,0.1-0.2,0.2-0.2,0.3
	c0.2,0,0.4,0,0.5-0.1c0.2,0,0.4-0.1,0.5-0.2c0.1-0.1,0.3-0.1,0.3-0.2C30.5,34,30.5,33.9,30.5,33.8z"/>
<circle class="st1" cx="19.8" cy="20.4" r="2.8"/>
<circle class="st2" cx="26.3" cy="20.4" r="2.8"/>
<circle class="st3" cx="32.6" cy="20.4" r="2.8"/>
<path class="st4" d="M56.4,41.5v-33"/>
</svg>
